<svg xmlns="http://www.w3.org/2000/svg" xmlns:xlink="http://www.w3.org/1999/xlink" width="44" height="44" viewBox="0 0 44 44">
  <defs>
    <clipPath id="clip-path">
      <rect id="Rectángulo_14054" data-name="Rectángulo 14054" width="28.125" height="28.125" fill="#5c2472" stroke="#5b2472" stroke-width="2"/>
    </clipPath>
  </defs>
  <g id="Grupo_15869" data-name="Grupo 15869" transform="translate(-640.5 -170.5)">
    <g id="Grupo_15868" data-name="Grupo 15868" transform="translate(640 171)">
      <circle id="Elipse_206" data-name="Elipse 206" cx="22" cy="22" r="22" transform="translate(0.5 -0.5)" fill="#f6ecfa"/>
      <g id="Grupo_15860" data-name="Grupo 15860" transform="translate(8.481 7.067)">
        <g id="Grupo_15859" data-name="Grupo 15859" clip-path="url(#clip-path)">
          <g id="Grupo_15866" data-name="Grupo 15866" transform="translate(4.926 1.48)">
            <g id="Grupo_15867" data-name="Grupo 15867" transform="translate(0 0)">
              <path id="Trazado_24537" data-name="Trazado 24537" d="M16.235,21.425a1.342,1.342,0,0,0-1.28.962H10.436a1.7,1.7,0,0,0-1.268-1.268V19.113c3.133-.1,5.567-1.468,5.607-3.184v-.055l.079-12.556V3.274C14.853,1.437,12.214,0,8.842,0S2.831,1.437,2.831,3.274v12.6c0,1.755,2.422,3.137,5.583,3.243v2.01a1.692,1.692,0,0,0-1.268,1.268H2.619a1.339,1.339,0,1,0,0,.754H7.142a1.686,1.686,0,0,0,3.29,0h4.519a1.337,1.337,0,1,0,1.284-1.72M3.581,4.88A7.715,7.715,0,0,0,8.838,6.545a7.791,7.791,0,0,0,5.226-1.637L14.017,7.55a.347.347,0,0,0,.051.2v0c-.255,1.26-2.556,2.285-5.23,2.285-2.85,0-5.257-1.154-5.257-2.521V4.88m0,4.26A7.715,7.715,0,0,0,8.838,10.8a7.79,7.79,0,0,0,5.218-1.633l0,.585-.039,2.073c-.027,1.343-2.419,2.474-5.218,2.474-2.827,0-5.218-1.146-5.218-2.5V9.14ZM8.838.754c2.85,0,5.257,1.154,5.257,2.521h0c0,.008,0,.016,0,.024-.027,1.351-2.434,2.493-5.257,2.493-2.85,0-5.257-1.154-5.257-2.521S5.991.754,8.838.754M3.581,15.866V13.4A7.664,7.664,0,0,0,8.8,15.053a7.709,7.709,0,0,0,5.234-1.661l-.016,2.5c-.027,1.343-2.419,2.474-5.218,2.474-2.827,0-5.218-1.139-5.218-2.5M1.339,23.349a.583.583,0,1,1,.585-.585.586.586,0,0,1-.585.585m7.448.349a.939.939,0,0,1-.938-.931V22.76a.938.938,0,1,1,.938.938m7.448-.349a.583.583,0,1,1,.585-.585.586.586,0,0,1-.585.585" transform="translate(0.352 0.352)" fill="#5c2472" stroke="#5b2472" stroke-width="0.5"/>
              <path id="Trazado_24537_-_Contorno" data-name="Trazado 24537 - Contorno" d="M8.888,24.913a2.06,2.06,0,0,1-1.9-1.315H2.961a1.675,1.675,0,0,1-1.521.962,1.69,1.69,0,0,1,0-3.381,1.675,1.675,0,0,1,1.521.962H6.988a2.062,2.062,0,0,1,1.176-1.175V19.549a8.842,8.842,0,0,1-3.8-1.034,3.057,3.057,0,0,1-1.782-2.544V3.376A3.139,3.139,0,0,1,4.5.741,9.471,9.471,0,0,1,8.943-.25a9.471,9.471,0,0,1,4.438.991,3.139,3.139,0,0,1,1.924,2.635v.045l-.079,12.617a3.09,3.09,0,0,1-1.821,2.5A8.948,8.948,0,0,1,9.621,19.55v1.412A2.064,2.064,0,0,1,10.8,22.137h4.021a1.7,1.7,0,0,1,1.52-.962,1.687,1.687,0,0,1,1.686,1.7,1.687,1.687,0,0,1-3.211.727H10.794A2.029,2.029,0,0,1,8.888,24.913ZM2.458,22.9H7.523l.063.273a1.35,1.35,0,0,0,1.3,1.043,1.332,1.332,0,0,0,1.3-1.042l.063-.273h5.061l.075.251a.986.986,0,1,0,.947-1.268.994.994,0,0,0-.943.711l-.075.251H10.258l-.063-.272a1.35,1.35,0,0,0-1-1L8.918,21.5V18.874l.34-.011c2.916-.1,5.228-1.341,5.267-2.837v-.051l.079-12.6C14.6,1.764,12.064.453,8.943.453S3.284,1.764,3.284,3.376v12.6c0,1.523,2.3,2.793,5.243,2.892l.34.011V21.5l-.272.063a1.348,1.348,0,0,0-1,1l-.063.273H2.458l-.075-.251a.987.987,0,1,0,0,.553Zm6.43,1.257A1.293,1.293,0,0,1,7.6,22.872v-.013a1.29,1.29,0,1,1,1.29,1.293Zm0-1.869a.583.583,0,1,0,.587.583A.588.588,0,0,0,8.888,22.283ZM16.336,23.8a.935.935,0,1,1,.937-.937A.938.938,0,0,1,16.336,23.8Zm0-1.166a.231.231,0,1,0,.233.23A.235.235,0,0,0,16.336,22.636ZM1.44,23.8a.935.935,0,1,1,.937-.937A.938.938,0,0,1,1.44,23.8Zm0-1.166a.231.231,0,1,0,.233.23A.232.232,0,0,0,1.44,22.636Zm7.445-3.82c-3.063,0-5.555-1.278-5.555-2.849v-3.3l.6.586A7.409,7.409,0,0,0,8.9,14.8a7.427,7.427,0,0,0,4.988-1.56l.6-.591-.021,3.342c-.032,1.559-2.53,2.823-5.57,2.823ZM4.034,14.243v1.724c0,.505.49,1.03,1.344,1.44a8.431,8.431,0,0,0,3.507.705H8.9c2.525,0,4.844-1.015,4.867-2.129l.011-1.748A8.851,8.851,0,0,1,8.9,15.506,8.842,8.842,0,0,1,4.034,14.243Zm4.862.509c-3.071,0-5.57-1.28-5.57-2.853V8.89h.5l.1.1a7.453,7.453,0,0,0,5.011,1.56,7.526,7.526,0,0,0,4.975-1.536l.6-.572-.009,1.414-.039,2.077C14.434,13.488,11.935,14.752,8.9,14.752ZM4.03,9.978V11.9c0,1.125,2.319,2.149,4.866,2.149,2.524,0,4.844-1.015,4.866-2.129L13.8,10a8.94,8.94,0,0,1-4.86,1.252A8.892,8.892,0,0,1,4.03,9.978Zm4.91.514c-3.093,0-5.609-1.288-5.609-2.872V4.142l.6.589A7.45,7.45,0,0,0,8.939,6.3a7.522,7.522,0,0,0,4.983-1.54l.61-.584-.063,3.5.05.083v.134l-.007.038C14.217,9.389,11.821,10.492,8.939,10.492ZM4.034,5.721v1.9c0,1.135,2.338,2.169,4.906,2.169a8.613,8.613,0,0,0,3.38-.64A2.533,2.533,0,0,0,13.8,7.882a.7.7,0,0,1-.033-.242L13.8,5.748A8.949,8.949,0,0,1,8.939,7,8.885,8.885,0,0,1,4.034,5.721Zm4.906.523c-3.093,0-5.609-1.288-5.609-2.872S5.847.5,8.939.5c2.86,0,5.227,1.1,5.567,2.521h.042l0,.352a.38.38,0,0,1,0,.061C14.484,4.988,11.981,6.244,8.939,6.244Zm0-5.037c-2.567,0-4.906,1.032-4.906,2.165S6.372,5.541,8.939,5.541c2.544,0,4.882-1.024,4.906-2.148V3.376C13.845,2.241,11.507,1.207,8.939,1.207Z" transform="translate(0.25 0.25)" fill="#5b2472" stroke="#5b2472" stroke-width="0.5"/>
            </g>
          </g>
        </g>
      </g>
    </g>
  </g>
</svg>
